<svg width="16" height="16" viewBox="0 0 16 16" fill="none" xmlns="http://www.w3.org/2000/svg">
<path d="M12.5198 14.4748H2.97238C1.81895 14.4748 0.883789 13.5396 0.883789 12.386V2.83882C0.883789 1.68524 1.81896 0.75 2.97238 0.75H12.5198C13.6732 0.75 14.6084 1.68524 14.6084 2.83882V12.386C14.6084 13.5396 13.6732 14.4748 12.5198 14.4748Z" stroke="white" stroke-width="1.5" stroke-miterlimit="2" stroke-linecap="round" stroke-linejoin="round"/>
<path d="M9.35065 7.24506C9.10421 7.38796 8.9379 7.36478 8.74368 7.16313C8.23979 6.64079 7.71496 6.13847 7.20927 5.61747C7.03935 5.44261 6.91873 5.43158 6.74994 5.6195C5.54725 6.95632 4.33804 8.28705 3.13086 9.61959C3.14301 9.63737 3.15494 9.65492 3.16732 9.6727C4.16948 9.11884 5.17884 8.57715 6.16975 8.00371C6.46997 7.82974 6.65091 7.87498 6.87641 8.11511C7.35285 8.62328 7.8599 9.10287 8.34871 9.59956C8.50647 9.76002 8.63025 9.81471 8.81119 9.61306C9.6637 8.66222 10.5286 7.72239 11.3865 6.7765C11.6926 6.43937 11.9921 6.09616 12.3628 5.67914C12.0259 5.71334 11.8548 5.85175 11.6716 5.95257C10.8956 6.3786 10.117 6.80103 9.35065 7.24506Z" fill="white"/>
</svg>
