<svg width="17" height="16" viewBox="0 0 17 16" fill="none" xmlns="http://www.w3.org/2000/svg">
<path d="M8.11434 1.56817C7.01429 1.56817 5.91425 1.54734 4.81533 1.57309C3.09804 1.61361 2.04206 2.42257 1.72949 3.90983C1.66321 4.22531 1.61387 4.55177 1.61236 4.87331C1.6022 6.9669 1.57434 9.06164 1.61689 11.1545C1.65907 13.2371 2.70639 14.3513 4.70386 14.4251C6.96044 14.5085 9.22078 14.5013 11.4774 14.4263C13.1415 14.371 14.1305 13.5654 14.4483 12.1191C14.5056 11.8612 14.5591 11.5953 14.5606 11.3329C14.573 8.94575 14.7029 6.55599 14.4886 4.17304C14.3617 2.76191 13.4214 1.84009 12.023 1.64694C10.7238 1.4678 9.41661 1.59506 8.11434 1.56817ZM0.0830078 4.28666C0.223856 3.54852 0.355284 2.80812 0.754478 2.15216C1.6666 0.655439 3.0924 0.08129 4.73625 0.0407663C6.97852 -0.0145277 9.22341 -0.0130127 11.4657 0.0419026C12.9879 0.0790177 14.3425 0.583101 15.2693 1.90978C15.8659 2.7638 16.0884 3.74167 16.1035 4.75287C16.1359 6.91956 16.1513 9.08815 16.1016 11.2545C16.0617 12.9992 15.4584 14.4884 13.8341 15.3754C13.0835 15.7848 12.2611 15.9632 11.4216 15.9726C9.20798 15.9984 6.99321 16.02 4.78069 15.9692C3.11989 15.9313 1.67715 15.3674 0.754858 13.8552C0.35491 13.1992 0.223856 12.4588 0.0830078 11.7207V4.28666Z" fill="white"/>
<path d="M10.7086 8.01106C10.7112 6.5791 9.53927 5.40694 8.09841 5.39937C6.66696 5.39179 5.47766 6.57001 5.4754 7.9978C5.47277 9.42977 6.64512 10.6023 8.0856 10.6095C9.51705 10.6171 10.7063 9.43886 10.7086 8.01106ZM12.2508 8.03151C12.244 10.2808 10.3881 12.1293 8.10896 12.1566C5.82301 12.1842 3.92683 10.2864 3.93361 7.97735C3.94001 5.70803 5.86632 3.80948 8.11875 3.85227C10.4299 3.8962 12.2572 5.74476 12.2508 8.03151Z" fill="white"/>
<path d="M12.3621 2.75886C12.9138 2.75205 13.3801 3.21106 13.3774 3.75832C13.3744 4.28248 12.927 4.73203 12.3926 4.74717C11.8428 4.76308 11.3664 4.31202 11.3566 3.76703C11.3468 3.21637 11.7957 2.76606 12.3621 2.75886Z" fill="white"/>
</svg>
