<svg width="17" height="16" viewBox="0 0 17 16" fill="none" xmlns="http://www.w3.org/2000/svg">
<path d="M3.32713 0C2.54071 0.00306448 1.78739 0.316824 1.2313 0.872906C0.675223 1.42899 0.361463 2.18232 0.358398 2.96873V13.0313C0.361463 13.8177 0.675223 14.571 1.2313 15.1271C1.78739 15.6832 2.54071 15.9969 3.32713 16H13.3897C14.1761 15.9969 14.9294 15.6832 15.4855 15.1271C16.0416 14.571 16.3553 13.8177 16.3584 13.0313V2.96873C16.3553 2.18232 16.0416 1.42899 15.4855 0.872906C14.9294 0.316824 14.1761 0.00306448 13.3897 0H3.32713ZM3.32713 1.45455H13.3897C14.2333 1.45455 14.9039 2.12509 14.9039 2.96873V13.0313C14.9039 13.8749 14.2333 14.5455 13.3897 14.5455H3.32713C3.12793 14.5467 2.93047 14.5084 2.74619 14.4328C2.56191 14.3571 2.39449 14.2456 2.25364 14.1048C2.11278 13.9639 2.0013 13.7965 1.92565 13.6122C1.85 13.4279 1.81169 13.2305 1.81294 13.0313V2.96873C1.81294 2.12509 2.48349 1.45455 3.32713 1.45455Z" fill="white"/>
<path d="M3.32713 0C2.54071 0.00306448 1.78739 0.316824 1.2313 0.872906C0.675223 1.42899 0.361463 2.18232 0.358398 2.96873V13.0313C0.361463 13.8177 0.675223 14.571 1.2313 15.1271C1.78739 15.6832 2.54071 15.9969 3.32713 16H13.3897C14.1761 15.9969 14.9294 15.6832 15.4855 15.1271C16.0416 14.571 16.3553 13.8177 16.3584 13.0313V2.96873C16.3553 2.18232 16.0416 1.42899 15.4855 0.872906C14.9294 0.316824 14.1761 0.00306448 13.3897 0H3.32713ZM3.32713 1.45455H13.3897C14.2333 1.45455 14.9039 2.12509 14.9039 2.96873V13.0313C14.9039 13.8749 14.2333 14.5455 13.3897 14.5455H3.32713C3.12793 14.5467 2.93047 14.5084 2.74619 14.4328C2.56191 14.3571 2.39449 14.2456 2.25364 14.1048C2.11278 13.9639 2.0013 13.7965 1.92565 13.6122C1.85 13.4279 1.81169 13.2305 1.81294 13.0313V2.96873C1.81294 2.12509 2.48349 1.45455 3.32713 1.45455Z" stroke="white"/>
<path d="M11.3457 4.44594L4.25804 7.41318C3.97282 7.55136 3.87636 7.82808 4.18911 7.97826L6.00739 8.60559L10.4038 5.65583C10.6438 5.47065 10.8896 5.52003 10.6781 5.72374L6.9022 9.43537L6.78359 11.0061C6.89345 11.2486 7.0946 11.2498 7.22292 11.1292L8.26757 10.0561L10.0567 11.5106C10.4723 11.7777 10.6984 11.6053 10.7878 11.1158L11.9613 5.08313C12.0831 4.48057 11.8754 4.21508 11.3457 4.44594Z" fill="white"/>
</svg>
