<svg width="16" height="16" viewBox="0 0 16 16" fill="none" xmlns="http://www.w3.org/2000/svg">
<path d="M12.2709 14.3334H2.81204C1.67334 14.3334 0.75 13.4101 0.75 12.2711V2.81227C0.75 1.67326 1.67334 0.75 2.81204 0.75H12.2709C13.4101 0.75 14.3334 1.67334 14.3334 2.81227V12.2711C14.3334 13.4101 13.4101 14.3334 12.2709 14.3334Z" stroke="white" stroke-width="1.5" stroke-miterlimit="2" stroke-linecap="round" stroke-linejoin="round"/>
<path d="M9.27321 7.79008L7.0478 8.86588C6.86875 8.95239 6.66095 8.82218 6.66095 8.6233V6.52073C6.66095 6.32407 6.86474 6.19364 7.04334 6.27614L9.26898 7.3029C9.35527 7.34258 9.40365 7.41705 9.41859 7.4971C9.42818 7.51984 9.42795 7.54303 9.42283 7.56599C9.41681 7.65629 9.36842 7.74414 9.27321 7.79008ZM7.70175 3.74414C2.85426 3.74414 2.76953 4.17513 2.76953 7.54169C2.76953 10.9085 2.85426 11.3397 7.70175 11.3397C12.549 11.3397 12.634 10.9085 12.634 7.54191C12.634 4.17513 12.549 3.74414 7.70175 3.74414Z" fill="white"/>
</svg>
